<svg xmlns="http://www.w3.org/2000/svg" version="1.1" xmlns:xlink="http://www.w3.org/1999/xlink" xmlns:svgjs="http://svgjs.dev/svgjs" width="1000" height="1000" viewBox="0 0 1000 1000"><rect width="1000" height="1000" fill="#ffffff"></rect><g transform="matrix(0.7,0,0,0.7,149.57575757575756,252.30255000000002)"><svg viewBox="0 0 396 280" data-background-color="#ffffff" preserveAspectRatio="xMidYMid meet" height="707" width="1000" xmlns="http://www.w3.org/2000/svg" xmlns:xlink="http://www.w3.org/1999/xlink"><g id="tight-bounds" transform="matrix(1,0,0,1,0.2400000000000091,0.13999999999998636)"><svg viewBox="0 0 395.52 279.72" height="279.72" width="395.52"><g><svg viewBox="0 0 395.52 279.72" height="279.72" width="395.52"><g><svg viewBox="0 0 395.52 279.72" height="279.72" width="395.52"><g><svg viewBox="0 0 395.52 279.72" height="279.72" width="395.52"><g><svg viewBox="0 0 395.52 279.72" height="279.72" width="395.52"><g transform="matrix(1,0,0,1,137.8237787487873,73.92936372216631)"><svg viewBox="0 0 119.87244250242537 131.8612725556674" height="131.8612725556674" width="119.87244250242537"><g><svg xmlns="http://www.w3.org/2000/svg" version="1.0" viewBox="78.15765380859375 46.2482795715332 642.6896362304688 706.9671020507812" preserveAspectRatio="xMidYMid meet" x="0" y="0" height="131.8612725556674" width="119.87244250242537" class="icon-o-0" data-fill-palette-color="accent" id="o-0"><g transform="translate(0.000000,800.000000) scale(0.100000,-0.100000)" fill="#f2aded" stroke="none" data-fill-palette-color="accent"><path d="M3205 7534c-335-26-686-89-836-150-156-64-311-176-495-359-144-143-205-219-224-280-8-22-17-85-20-140-6-92-11-109-57-210-28-60-81-195-119-300l-68-190 0-115c-1-96 3-127 24-190 45-139 27-380-32-411-32-17-108-5-184 29l-69 32 54-50c29-27 77-61 106-77l53-27-15-31c-38-73-193-254-393-460-65-66-125-135-135-154-22-44-16-131 11-168 14-18 88-57 244-128l225-103-2-58c-2-66-33-173-63-222-11-18-34-41-50-50-25-14-30-23-30-55 0-54 22-99 65-134 44-37 101-53 187-53l63 0-45-27c-79-46-108-73-130-118-26-55-19-88 26-116 50-31 101-95 121-153 26-74 23-216-6-329-22-85-22-90-6-130 41-104 137-172 285-203 102-22 272-14 355 16 186 66 437 108 706 117l186 6 100-134c352-470 559-901 659-1374 26-119 28-149 28-352 1-145 4-219 11-215 8 5 1944 1459 1953 1467 1 1-52 55-119 121-587 576-881 1066-861 1435 2 30 8 39 40 56 71 41 202 144 305 243 116 111 134 118 187 73 29-24 32-31 27-67-3-23-24-79-46-126-22-47-52-131-67-185-35-131-40-348-10-460 27-102 67-194 122-282 68-110 259-300 390-386 91-61 286-167 305-167 4 0-32 39-80 87-134 136-226 290-239 402l-5 45 44-36c124-100 351-229 497-282 171-61 224-70 417-71 209 0 285 15 440 89 103 50 209 122 162 112-112-25-177-14-238 41-47 43-81 104-105 194-14 52-18 110-20 309-1 207-5 261-23 347-62 296-215 549-433 714-171 129-286 155-460 104-107-32-224-42-285-26-54 15-98 57-113 109-13 41-12 42 57 179 163 318 235 606 234 938 0 329-69 618-222 931-64 132-181 314-282 439-91 113-286 297-398 377-230 165-522 268-910 324-110 15-664 28-794 18z m903-524c200-18 344-57 518-139 690-328 1020-1125 764-1846-76-212-183-380-354-551-212-211-439-337-735-405-61-15-138-22-266-26-277-8-453 28-692 142-299 142-540 380-690 678-99 199-142 375-150 617-4 149-2 193 15 295 56 325 207 606 447 834 271 256 604 393 1000 410 17 0 81-4 143-9z" fill="#000000" data-fill-palette-color="accent"></path><path d="M4062 5983c-103-287-341-977-339-980 8-8 152-22 157-16 4 5 87 240 185 523 98 283 180 520 182 526 5 13-18 20-98 29l-56 7-31-89z" fill="#000000" data-fill-palette-color="accent"></path><path d="M3120 5851l-365-197 0-134 0-133 360-188c198-104 363-188 368-189 4 0 7 60 7 134l0 133-222 117c-123 65-226 121-230 125-4 4 96 63 222 131l230 125 0 138c0 75-1 137-2 136-2 0-167-89-368-198z" fill="#000000" data-fill-palette-color="accent"></path><path d="M4420 5912l0-137 230-125c126-68 226-127 222-131-4-4-107-60-229-125l-223-117 0-134c0-73 3-133 8-133 4 0 174 85 377 189l370 189 0 133 0 133-245 128c-135 71-305 160-377 198l-133 69 0-137z" fill="#000000" data-fill-palette-color="accent"></path></g></svg></g></svg></g><path d="M149.168 7.247L165.659 28.382 166.048 28.272 169.058 1.635 174.852 0 171.452 30.315 162.129 32.946 143.384 8.879ZM276.052 21.517L281.213 24.288 267.85 49.181 261.095 45.554 258.638 18.119 258.282 17.928 247.399 38.202 242.246 35.435 255.609 10.543 262.364 14.169 264.812 41.599 265.168 41.791ZM93.37 187.089L95.614 192.315 80.604 204.442 80.736 204.748 101.568 201.961 103.481 206.416 79.382 209.66 76.545 203.051 91.021 191.374 90.89 191.067 72.453 193.519 69.612 186.901 88.563 171.664 90.479 176.129 74.109 189.312 74.241 189.618ZM113.786 223.465L104.431 211.025 98.279 215.651 105.625 225.419 103.615 226.931 96.269 217.162 89.722 222.086 99.077 234.527 97.067 236.038 84.797 219.723 103.519 205.644 115.788 221.96ZM100.799 239.443L116.416 221.984 124.893 229.566C126.178 230.716 127.191 231.821 127.932 232.881 128.669 233.946 129.164 234.958 129.417 235.917 129.666 236.871 129.687 237.767 129.481 238.603 129.275 239.44 128.867 240.199 128.256 240.882V240.882C127.47 241.76 126.537 242.299 125.456 242.497 124.375 242.705 123.194 242.521 121.913 241.944V241.944C122.938 243.303 123.481 244.66 123.542 246.016 123.598 247.377 123.122 248.622 122.112 249.751V249.751C120.774 251.247 119.094 251.877 117.073 251.642 115.053 251.406 112.704 250.092 110.029 247.699V247.699ZM117.168 239.718L111.551 234.695 106.09 240.8 111.706 245.824C112.951 246.938 114.129 247.544 115.241 247.645 116.348 247.74 117.348 247.289 118.242 246.29V246.29C119.194 245.226 119.565 244.144 119.356 243.045 119.142 241.941 118.412 240.832 117.168 239.718ZM113.228 232.82L118.092 237.17C120.506 239.33 122.604 239.413 124.386 237.421V237.421C125.177 236.537 125.479 235.588 125.294 234.573 125.113 233.553 124.423 232.506 123.223 231.433V231.433L118.36 227.083ZM143.109 242.658L153.187 247.166C155.025 247.989 156.589 248.961 157.88 250.084 159.173 251.216 160.154 252.47 160.822 253.846 161.493 255.216 161.825 256.7 161.819 258.298 161.812 259.896 161.417 261.571 160.633 263.323V263.323C159.849 265.074 158.864 266.485 157.677 267.555 156.49 268.625 155.161 269.37 153.69 269.789 152.219 270.208 150.632 270.309 148.929 270.093 147.229 269.886 145.46 269.371 143.622 268.549V268.549L133.544 264.04ZM152.164 249.453L146.512 246.925 138.997 263.724 144.649 266.253C145.688 266.718 146.732 266.997 147.782 267.09 148.826 267.181 149.839 267.036 150.82 266.657 151.795 266.274 152.721 265.64 153.596 264.756 154.462 263.874 155.228 262.69 155.894 261.202V261.202C156.559 259.715 156.932 258.354 157.011 257.121 157.085 255.885 156.939 254.776 156.574 253.794 156.203 252.809 155.638 251.955 154.877 251.231 154.107 250.51 153.203 249.918 152.164 249.453ZM185.573 259.145L170.366 255.823 168.724 263.343 180.664 265.951 180.127 268.409 168.187 265.8 166.438 273.803 181.645 277.125 181.109 279.583 161.165 275.226 166.164 252.341 186.108 256.698ZM189.331 256.271L197.684 276.863 198.028 276.864 206.462 256.305 211.452 256.314 201.871 279.72 193.83 279.704 184.341 256.261ZM231.743 254.668L216.457 257.609 217.911 265.167 229.913 262.858 230.389 265.328 218.386 267.637 219.934 275.681 235.219 272.741 235.695 275.211 215.648 279.067 211.223 256.065 231.269 252.208ZM243.893 269.32L257.3 264.08 258.215 266.423 240.293 273.427 231.766 251.61 236.282 249.845ZM259.305 239.832V239.832C258.34 240.435 257.545 241.17 256.919 242.037 256.288 242.908 255.879 243.886 255.692 244.972 255.503 246.067 255.559 247.263 255.861 248.559 256.157 249.859 256.761 251.237 257.671 252.693V252.693C258.581 254.149 259.557 255.298 260.599 256.14 261.632 256.979 262.68 257.551 263.743 257.855 264.805 258.169 265.865 258.233 266.924 258.047 267.974 257.859 268.982 257.464 269.947 256.861V256.861C270.912 256.258 271.709 255.526 272.338 254.664 272.969 253.793 273.376 252.812 273.56 251.721 273.753 250.631 273.698 249.439 273.396 248.142 273.097 246.837 272.492 245.456 271.582 244V244C270.672 242.543 269.697 241.397 268.659 240.561 267.626 239.722 266.576 239.147 265.509 238.837 264.451 238.53 263.392 238.469 262.333 238.654 261.28 238.836 260.27 239.229 259.305 239.832ZM258.063 237.845V237.845C259.765 236.781 261.455 236.042 263.134 235.628 264.804 235.212 266.414 235.139 267.964 235.409 269.515 235.679 270.971 236.294 272.333 237.253 273.698 238.218 274.913 239.552 275.976 241.254V241.254C277.043 242.961 277.709 244.637 277.975 246.282 278.244 247.932 278.158 249.51 277.718 251.016 277.281 252.528 276.511 253.946 275.409 255.27 274.297 256.592 272.891 257.785 271.189 258.848V258.848C269.487 259.912 267.796 260.655 266.115 261.078 264.425 261.499 262.804 261.575 261.254 261.305 259.713 261.037 258.262 260.419 256.903 259.45 255.552 258.484 254.343 257.147 253.276 255.439V255.439C252.213 253.738 251.541 252.065 251.26 250.422 250.989 248.781 251.069 247.206 251.5 245.698 251.937 244.186 252.717 242.766 253.84 241.437 254.954 240.105 256.361 238.908 258.063 237.845ZM270.038 230.507L278.606 222.033C279.793 220.859 280.987 219.935 282.186 219.26 283.394 218.586 284.568 218.178 285.707 218.037 286.855 217.896 287.959 218.012 289.019 218.384 290.083 218.761 291.07 219.41 291.979 220.329V220.329C292.893 221.253 293.531 222.247 293.891 223.311 294.257 224.38 294.36 225.485 294.201 226.627 294.052 227.769 293.634 228.94 292.946 230.141 292.259 231.333 291.321 232.516 290.134 233.69V233.69L285.013 238.754 289.956 243.753 286.509 247.162ZM280.367 223.814L275.247 228.879 283.251 236.973 288.372 231.909C289.627 230.668 290.272 229.376 290.308 228.034 290.349 226.696 289.685 225.335 288.316 223.951V223.951C286.953 222.573 285.602 221.896 284.264 221.922 282.921 221.943 281.622 222.574 280.367 223.814ZM299.785 198.092L291.096 211.008 297.483 215.304 304.305 205.163 306.392 206.567 299.57 216.708 306.367 221.281 315.055 208.365 317.142 209.769 305.747 226.707 286.311 213.632 297.706 196.694ZM297.516 196.106L302.153 184.983C302.796 183.442 303.54 182.129 304.386 181.044 305.241 179.956 306.167 179.127 307.163 178.558 308.168 177.984 309.231 177.665 310.353 177.6 311.481 177.538 312.641 177.755 313.835 178.253V178.253C315.482 178.939 316.703 179.93 317.498 181.225 318.285 182.523 318.654 184.07 318.605 185.867V185.867L328.022 183.806 325.896 188.906 317.514 190.742 317.285 191.292 314.514 197.939 321.003 200.644 319.137 205.12ZM304.466 185.947L301.694 192.595 312.202 196.975 314.973 190.328C315.652 188.699 315.746 187.265 315.257 186.025 314.773 184.787 313.633 183.794 311.837 183.045V183.045C310.047 182.299 308.542 182.189 307.322 182.717 306.097 183.242 305.144 184.319 304.466 185.947ZM59.819 143.797C59.819 137.837 64.651 133.005 70.611 133.005 76.572 133.005 81.404 137.837 81.404 143.797 81.404 149.758 76.572 154.59 70.611 154.59 64.651 154.59 59.819 149.758 59.819 143.797ZM314.116 143.797C314.116 137.837 318.948 133.005 324.909 133.005 330.869 133.005 335.701 137.837 335.701 143.797 335.701 149.758 330.869 154.59 324.909 154.59 318.948 154.59 314.116 149.758 314.116 143.797Z" fill="#000000" data-fill-palette-color="primary"></path></svg></g></svg></g></svg></g></svg></g><defs></defs></svg><rect width="395.52" height="279.72" fill="none" stroke="none" visibility="hidden"></rect></g></svg></g></svg>