<svg xmlns="http://www.w3.org/2000/svg" xmlns:xlink="http://www.w3.org/1999/xlink" width="500" zoomAndPan="magnify" viewBox="0 0 375 374.999991" height="500" preserveAspectRatio="xMidYMid meet" version="1.0"><defs><g/></defs><path fill="#000000" d="M 134.019531 186.855469 C 133.5 187.660156 132.792969 187.023438 133.242188 186.320312 C 149.878906 160.332031 160.3125 195.585938 193.753906 192.625 C 245.242188 188.070312 288.285156 173.527344 320.320312 186.046875 C 322.554688 186.921875 320.980469 188.753906 319.101562 187.898438 C 292.4375 175.777344 242.90625 188.46875 193.53125 193.609375 C 160.074219 197.089844 150.617188 161.292969 134.019531 186.855469 Z M 134.019531 186.855469 " fill-opacity="1" fill-rule="nonzero"/><g fill="#000000" fill-opacity="1"><g transform="translate(68.636719, 200.249987)"><g><path d="M 0.480469 -19.320312 C -1.558594 -10.800781 -1.441406 6.660156 5.339844 5.640625 C 7.800781 5.28125 12.421875 0 15.238281 -5.28125 C 20.519531 -4.078125 26.578125 -7.980469 31.140625 -14.039062 C 31.140625 -14.339844 30.179688 -14.28125 29.941406 -13.980469 C 26.761719 -9.601562 20.339844 -4.859375 15.660156 -6.179688 C 20.398438 -16.261719 19.859375 -22.980469 15.839844 -23.820312 C 8.460938 -24.539062 6.179688 -9.839844 14.21875 -5.699219 C 11.101562 0.480469 7.078125 4.320312 5.339844 4.621094 C 2.101562 5.160156 2.339844 -9.359375 4.800781 -19.738281 C 5.519531 -22.679688 1.261719 -22.679688 0.480469 -19.320312 Z M 14.640625 -6.601562 C 7.261719 -10.558594 10.078125 -23.460938 15.480469 -23.039062 C 19.320312 -22.320312 18.839844 -15 14.640625 -6.601562 Z M 14.640625 -6.601562 "/></g></g></g><g fill="#000000" fill-opacity="1"><g transform="translate(98.336687, 200.249987)"><g><path d="M 4.261719 -18.359375 C 4.5 -20.699219 1.019531 -19.199219 0.421875 -16.800781 C -1.320312 -5.941406 -0.78125 -7.679688 -1.800781 -0.121094 C -1.980469 1.378906 0.359375 2.699219 1.261719 0 L 2.398438 -6.058594 C 7.019531 -21.71875 14.160156 -28.558594 17.28125 -26.28125 C 20.398438 -24.058594 11.21875 0.421875 16.738281 3.300781 C 18.300781 4.078125 19.140625 4.078125 21.238281 2.519531 C 26.640625 -1.5 32.640625 -9.78125 35.941406 -14.101562 C 35.941406 -14.398438 35.160156 -14.398438 34.921875 -14.160156 C 32.339844 -10.859375 25.441406 -1.019531 20.160156 2.21875 C 11.21875 7.679688 26.039062 -20.460938 17.878906 -27 C 14.878906 -29.339844 8.699219 -25.441406 3.421875 -12 C 3.71875 -13.980469 3.960938 -15.78125 4.261719 -18.359375 Z M 4.261719 -18.359375 "/></g></g></g><g fill="#000000" fill-opacity="1"><g transform="translate(125.346902, 217.664487)"><g><path d="M 8.578125 -9.140625 L 4.546875 0.4375 L 0.515625 -9.140625 L 1.96875 -9.140625 L 4.59375 -2.546875 L 7.140625 -9.140625 Z M 8.578125 -9.140625 "/></g></g></g><g fill="#000000" fill-opacity="1"><g transform="translate(137.688075, 217.664487)"><g><path d="M 6.109375 -2.40625 L 2.59375 -2.40625 L 1.625 0 L 0.40625 0 L 4.40625 -9.515625 L 4.46875 -9.515625 L 8.46875 0 L 7.046875 0 Z M 5.6875 -3.46875 L 4.390625 -6.796875 L 3.03125 -3.46875 Z M 5.6875 -3.46875 "/></g></g></g><g fill="#000000" fill-opacity="1"><g transform="translate(149.801648, 217.664487)"><g><path d="M 9.28125 -9.140625 L 9.28125 0.296875 L 9.234375 0.296875 L 2.53125 -6.515625 L 2.546875 0 L 1.3125 0 L 1.3125 -9.421875 L 1.375 -9.421875 L 8.078125 -2.53125 L 8.046875 -9.140625 Z M 9.28125 -9.140625 "/></g></g></g><g fill="#000000" fill-opacity="1"><g transform="translate(163.647514, 217.664487)"><g><path d="M 7.25 -9.140625 L 7.25 -7.96875 L 2.546875 -7.96875 L 2.546875 -5.1875 L 6.75 -5.1875 L 6.75 -4 L 2.546875 -4 L 2.546875 -1.1875 L 7.4375 -1.1875 L 7.4375 0 L 1.3125 0 L 1.3125 -9.140625 Z M 7.25 -9.140625 "/></g></g></g><g fill="#000000" fill-opacity="1"><g transform="translate(175.154161, 217.664487)"><g><path d="M 6.046875 -7.515625 C 5.710938 -7.691406 5.359375 -7.832031 4.984375 -7.9375 C 4.617188 -8.050781 4.269531 -8.109375 3.9375 -8.109375 C 3.445312 -8.109375 3.054688 -7.992188 2.765625 -7.765625 C 2.472656 -7.546875 2.328125 -7.238281 2.328125 -6.84375 C 2.328125 -6.46875 2.492188 -6.160156 2.828125 -5.921875 C 3.171875 -5.679688 3.660156 -5.441406 4.296875 -5.203125 C 4.765625 -5.035156 5.160156 -4.851562 5.484375 -4.65625 C 5.816406 -4.457031 6.085938 -4.179688 6.296875 -3.828125 C 6.515625 -3.484375 6.625 -3.039062 6.625 -2.5 C 6.625 -2.007812 6.5 -1.566406 6.25 -1.171875 C 6.007812 -0.773438 5.660156 -0.460938 5.203125 -0.234375 C 4.753906 -0.015625 4.226562 0.09375 3.625 0.09375 C 3.0625 0.09375 2.519531 0.00390625 2 -0.171875 C 1.476562 -0.347656 1.019531 -0.578125 0.625 -0.859375 L 1.15625 -1.828125 C 1.46875 -1.597656 1.84375 -1.398438 2.28125 -1.234375 C 2.71875 -1.066406 3.128906 -0.984375 3.515625 -0.984375 C 4.003906 -0.984375 4.429688 -1.109375 4.796875 -1.359375 C 5.160156 -1.617188 5.34375 -1.992188 5.34375 -2.484375 C 5.34375 -2.910156 5.1875 -3.25 4.875 -3.5 C 4.570312 -3.75 4.144531 -3.984375 3.59375 -4.203125 C 3.070312 -4.390625 2.640625 -4.578125 2.296875 -4.765625 C 1.960938 -4.953125 1.671875 -5.207031 1.421875 -5.53125 C 1.179688 -5.851562 1.0625 -6.257812 1.0625 -6.75 C 1.0625 -7.46875 1.3125 -8.046875 1.8125 -8.484375 C 2.3125 -8.929688 2.960938 -9.164062 3.765625 -9.1875 C 4.753906 -9.1875 5.671875 -8.941406 6.515625 -8.453125 Z M 6.046875 -7.515625 "/></g></g></g><g fill="#000000" fill-opacity="1"><g transform="translate(185.763039, 217.664487)"><g><path d="M 6.046875 -7.515625 C 5.710938 -7.691406 5.359375 -7.832031 4.984375 -7.9375 C 4.617188 -8.050781 4.269531 -8.109375 3.9375 -8.109375 C 3.445312 -8.109375 3.054688 -7.992188 2.765625 -7.765625 C 2.472656 -7.546875 2.328125 -7.238281 2.328125 -6.84375 C 2.328125 -6.46875 2.492188 -6.160156 2.828125 -5.921875 C 3.171875 -5.679688 3.660156 -5.441406 4.296875 -5.203125 C 4.765625 -5.035156 5.160156 -4.851562 5.484375 -4.65625 C 5.816406 -4.457031 6.085938 -4.179688 6.296875 -3.828125 C 6.515625 -3.484375 6.625 -3.039062 6.625 -2.5 C 6.625 -2.007812 6.5 -1.566406 6.25 -1.171875 C 6.007812 -0.773438 5.660156 -0.460938 5.203125 -0.234375 C 4.753906 -0.015625 4.226562 0.09375 3.625 0.09375 C 3.0625 0.09375 2.519531 0.00390625 2 -0.171875 C 1.476562 -0.347656 1.019531 -0.578125 0.625 -0.859375 L 1.15625 -1.828125 C 1.46875 -1.597656 1.84375 -1.398438 2.28125 -1.234375 C 2.71875 -1.066406 3.128906 -0.984375 3.515625 -0.984375 C 4.003906 -0.984375 4.429688 -1.109375 4.796875 -1.359375 C 5.160156 -1.617188 5.34375 -1.992188 5.34375 -2.484375 C 5.34375 -2.910156 5.1875 -3.25 4.875 -3.5 C 4.570312 -3.75 4.144531 -3.984375 3.59375 -4.203125 C 3.070312 -4.390625 2.640625 -4.578125 2.296875 -4.765625 C 1.960938 -4.953125 1.671875 -5.207031 1.421875 -5.53125 C 1.179688 -5.851562 1.0625 -6.257812 1.0625 -6.75 C 1.0625 -7.46875 1.3125 -8.046875 1.8125 -8.484375 C 2.3125 -8.929688 2.960938 -9.164062 3.765625 -9.1875 C 4.753906 -9.1875 5.671875 -8.941406 6.515625 -8.453125 Z M 6.046875 -7.515625 "/></g></g></g><g fill="#000000" fill-opacity="1"><g transform="translate(196.371918, 217.664487)"><g><path d="M 6.109375 -2.40625 L 2.59375 -2.40625 L 1.625 0 L 0.40625 0 L 4.40625 -9.515625 L 4.46875 -9.515625 L 8.46875 0 L 7.046875 0 Z M 5.6875 -3.46875 L 4.390625 -6.796875 L 3.03125 -3.46875 Z M 5.6875 -3.46875 "/></g></g></g><g fill="#000000" fill-opacity="1"><g transform="translate(208.485488, 217.664487)"><g/></g></g><g fill="#000000" fill-opacity="1"><g transform="translate(215.730937, 217.664487)"><g><path d="M 9.28125 -9.140625 L 9.28125 0.296875 L 9.234375 0.296875 L 2.53125 -6.515625 L 2.546875 0 L 1.3125 0 L 1.3125 -9.421875 L 1.375 -9.421875 L 8.078125 -2.53125 L 8.046875 -9.140625 Z M 9.28125 -9.140625 "/></g></g></g><g fill="#000000" fill-opacity="1"><g transform="translate(229.576799, 217.664487)"><g><path d="M 6.109375 -2.40625 L 2.59375 -2.40625 L 1.625 0 L 0.40625 0 L 4.40625 -9.515625 L 4.46875 -9.515625 L 8.46875 0 L 7.046875 0 Z M 5.6875 -3.46875 L 4.390625 -6.796875 L 3.03125 -3.46875 Z M 5.6875 -3.46875 "/></g></g></g><g fill="#000000" fill-opacity="1"><g transform="translate(241.69037, 217.664487)"><g><path d="M 2.53125 -5 L 2.6875 -5.25 L 6.421875 -9.140625 L 8 -9.140625 L 4.21875 -5.21875 L 8.21875 0 L 6.65625 0 L 3.328125 -4.4375 L 2.546875 -3.6875 L 2.5625 0 L 1.3125 0 L 1.3125 -9.140625 L 2.5625 -9.140625 L 2.5625 -5.453125 Z M 2.53125 -5 "/></g></g></g><g fill="#000000" fill-opacity="1"><g transform="translate(253.538414, 217.664487)"><g><path d="M 6.109375 -2.40625 L 2.59375 -2.40625 L 1.625 0 L 0.40625 0 L 4.40625 -9.515625 L 4.46875 -9.515625 L 8.46875 0 L 7.046875 0 Z M 5.6875 -3.46875 L 4.390625 -6.796875 L 3.03125 -3.46875 Z M 5.6875 -3.46875 "/></g></g></g><g fill="#000000" fill-opacity="1"><g transform="translate(265.651984, 217.664487)"><g><path d="M 10.40625 -9.4375 L 10.40625 0 L 9.1875 0 L 9.1875 -5.921875 L 5.828125 -1.15625 L 5.796875 -1.15625 L 2.5 -5.75 L 2.5 0 L 1.3125 0 L 1.3125 -9.4375 L 1.328125 -9.4375 L 5.828125 -3.0625 L 10.390625 -9.4375 Z M 10.40625 -9.4375 "/></g></g></g><g fill="#000000" fill-opacity="1"><g transform="translate(280.623213, 217.664487)"><g><path d="M 2.421875 -3.234375 C 2.421875 -2.828125 2.519531 -2.460938 2.71875 -2.140625 C 2.914062 -1.816406 3.175781 -1.5625 3.5 -1.375 C 3.832031 -1.1875 4.203125 -1.09375 4.609375 -1.09375 C 5.035156 -1.09375 5.414062 -1.179688 5.75 -1.359375 C 6.09375 -1.546875 6.359375 -1.800781 6.546875 -2.125 C 6.742188 -2.457031 6.84375 -2.828125 6.84375 -3.234375 L 6.84375 -9.140625 L 8.046875 -9.140625 L 8.046875 -3.203125 C 8.046875 -2.546875 7.894531 -1.96875 7.59375 -1.46875 C 7.289062 -0.96875 6.878906 -0.582031 6.359375 -0.3125 C 5.835938 -0.0390625 5.253906 0.09375 4.609375 0.09375 C 3.984375 0.09375 3.40625 -0.0390625 2.875 -0.3125 C 2.351562 -0.582031 1.941406 -0.96875 1.640625 -1.46875 C 1.347656 -1.96875 1.203125 -2.546875 1.203125 -3.203125 L 1.203125 -9.140625 L 2.421875 -9.140625 Z M 2.421875 -3.234375 "/></g></g></g><g fill="#000000" fill-opacity="1"><g transform="translate(293.128766, 217.664487)"><g><path d="M 6.34375 0 L 4.203125 -3.375 C 4.128906 -3.363281 4.023438 -3.359375 3.890625 -3.359375 L 2.546875 -3.359375 L 2.546875 0 L 1.3125 0 L 1.3125 -9.140625 L 3.75 -9.140625 C 4.375 -9.140625 4.929688 -9.03125 5.421875 -8.8125 C 5.910156 -8.59375 6.289062 -8.269531 6.5625 -7.84375 C 6.84375 -7.414062 6.984375 -6.90625 6.984375 -6.3125 C 6.984375 -5.738281 6.859375 -5.21875 6.609375 -4.75 C 6.367188 -4.28125 5.988281 -3.921875 5.46875 -3.671875 L 7.78125 0 Z M 3.875 -4.546875 C 4.53125 -4.546875 5 -4.71875 5.28125 -5.0625 C 5.570312 -5.414062 5.71875 -5.8125 5.71875 -6.25 C 5.71875 -6.519531 5.65625 -6.785156 5.53125 -7.046875 C 5.414062 -7.316406 5.222656 -7.535156 4.953125 -7.703125 C 4.691406 -7.878906 4.359375 -7.96875 3.953125 -7.96875 L 2.546875 -7.96875 L 2.546875 -4.546875 Z M 3.875 -4.546875 "/></g></g></g><g fill="#000000" fill-opacity="1"><g transform="translate(304.723919, 217.664487)"><g><path d="M 6.109375 -2.40625 L 2.59375 -2.40625 L 1.625 0 L 0.40625 0 L 4.40625 -9.515625 L 4.46875 -9.515625 L 8.46875 0 L 7.046875 0 Z M 5.6875 -3.46875 L 4.390625 -6.796875 L 3.03125 -3.46875 Z M 5.6875 -3.46875 "/></g></g></g></svg>